<?xml version="1.0" encoding="utf-8"?>
<!-- Generator: Adobe Illustrator 15.1.0, SVG Export Plug-In . SVG Version: 6.00 Build 0)  -->
<!DOCTYPE svg PUBLIC "-//W3C//DTD SVG 1.1//EN" "http://www.w3.org/Graphics/SVG/1.1/DTD/svg11.dtd">
<svg version="1.1" id="Layer_1" xmlns="http://www.w3.org/2000/svg" xmlns:xlink="http://www.w3.org/1999/xlink" x="0px" y="0px"
	 width="152.518px" height="233.94px" viewBox="0 0 152.518 233.94" enable-background="new 0 0 152.518 233.94"
	 xml:space="preserve">
<rect x="53.629" y="39.752" transform="matrix(-0.9969 0.0789 -0.0789 -0.9969 127.9859 81.126)" width="17.523" height="6.677"/>
<rect x="104.901" y="35.612" transform="matrix(-0.9969 0.0789 -0.0789 -0.9969 230.0437 68.8132)" width="17.522" height="6.676"/>
<polygon points="116.812,159.481 56.515,159.481 58.505,73.241 115.816,73.241 "/>
<circle cx="118.819" cy="78.665" r="11.065"/>
<circle cx="58.663" cy="78.665" r="11.065"/>
<circle cx="142.462" cy="119.362" r="9.277"/>
<path d="M72.242,154.422c0,6.527-5.296,11.822-11.826,11.822c-6.531,0-11.826-5.295-11.826-11.822
	c0-6.532,5.295-11.825,11.826-11.825C66.946,142.597,72.242,147.89,72.242,154.422z"/>
<path d="M124.809,154.422c0,6.527-5.296,11.822-11.827,11.822c-6.529,0-11.824-5.295-11.824-11.822
	c0-6.532,5.295-11.825,11.824-11.825C119.513,142.597,124.809,147.89,124.809,154.422z"/>
<polygon points="146.219,112.534 138.827,120.034 115.968,84.783 126.345,73.303 "/>
<polygon points="142.194,116.464 146.858,125.903 112.255,140.464 109.576,131.021 "/>
<circle cx="9.279" cy="73.932" r="9.278"/>
<polygon points="5.775,79.933 10.115,70.337 57.098,71.24 55.504,85.629 "/>
<polygon points="13.492,76.739 3.384,73.792 9.81,23.801 19.919,26.743 "/>
<path d="M115.737,219.012l1.99-58.663l-10.534,0.035l-2.059,72.557c0,0,18.061-0.001,30.082-0.001s14.983-16.913,0-16.913
	S115.737,219.012,115.737,219.012z"/>
<path d="M59.881,219.012l-2.985-58.663l10.534,0.035l3.054,72.557c0,0-18.061,0-30.082,0s-14.984-16.914,0-16.914
	C55.385,216.026,59.881,219.012,59.881,219.012z"/>
<circle cx="78.841" cy="41.662" r="2.768"/>
<path d="M105.837,20.724l-37.004,1.692l2.908,45.249l36.009-1.693L105.837,20.724z M78.6,45.523
	c-2.172-0.136-3.822-2.007-3.685-4.181c0.137-2.172,2.008-3.822,4.181-3.686c2.172,0.136,3.822,2.008,3.685,4.181
	C82.644,44.01,80.772,45.66,78.6,45.523z M96.002,44.643c-2.173-0.136-3.822-2.008-3.687-4.18c0.138-2.171,2.01-3.822,4.182-3.686
	c2.173,0.136,3.822,2.007,3.686,4.18C100.046,43.13,98.174,44.779,96.002,44.643z"/>
<circle cx="96.25" cy="40.71" r="2.684"/>
<circle fill="#FFFFFF" cx="87.799" cy="97.062" r="4.479"/>
<circle fill="#FFFFFF" cx="87.799" cy="113.347" r="4.479"/>
<circle fill="#FFFFFF" cx="87.799" cy="129.632" r="4.479"/>
<path fill="none" stroke="#000000" stroke-width="6" stroke-miterlimit="10" d="M25.381,11.476c1.255,2.038,1.793,4.531,1.339,7.073
	c-0.984,5.499-6.239,9.16-11.735,8.175c-5.5-0.981-9.164-6.238-8.181-11.736c0.48-2.68,1.975-4.92,4.014-6.402"/>
<path fill="none" stroke="#000000" stroke-width="3" stroke-miterlimit="10" d="M60.183,40.505c0,0-3.837-19.474-3.837-25.037
	c0-7.241,9.365-13.973,16.194-4.365c3.422,4.816-2.736,9.405-6.324,7.11C62.629,15.919,67.89,4.309,77.419,2.808
	c8.856-1.396,11.37,4.946,12.442,7.308c2.17,4.783-4.026,8.864-7.012,5.577c-2.985-3.287,3.391-13.96,12.485-14.055
	c10.179-0.105,13.643,9.621,10.993,12.921c-3.711,4.624-10.738,2.165-6.107-4.194c8.008-10.994,15.912-4.647,16.422,2.041
	c0.628,8.258-0.51,23.802-0.51,23.802"/>
</svg>
