<?xml version="1.0" encoding="utf-8"?>
<!-- Generator: Adobe Illustrator 15.1.0, SVG Export Plug-In . SVG Version: 6.00 Build 0)  -->
<!DOCTYPE svg PUBLIC "-//W3C//DTD SVG 1.1//EN" "http://www.w3.org/Graphics/SVG/1.1/DTD/svg11.dtd">
<svg version="1.1" id="Layer_1" xmlns="http://www.w3.org/2000/svg" xmlns:xlink="http://www.w3.org/1999/xlink" x="0px" y="0px"
	 width="612px" height="792px" viewBox="0 0 612 792" enable-background="new 0 0 612 792" xml:space="preserve">
<g>
	<path fill="#AF4500" d="M230.365,159.494l55.584-4.399l4.754,73.984l121.908-5.731l-3.312-78.294l53.781-4.256l-1.783-22.531
		l-18.61,1.473c0.765-11.508,3.344-53.905,1.522-77.852c-0.999-13.1-9.436-24.447-20.516-27.593
		c-4.475-1.271-11.762-1.802-20.493,3.267c-7.698-8.731-19.284-13.64-32.642-13.514c-11.047,0.116-21.193,4.794-29.165,11.469
		c-6.575-5.785-16.475-9.891-31.703-7.49c-11.99,1.889-21.744,8.109-28.914,15.631c-6.812-3.846-14.163-4.751-21.415-2.436
		c-12.703,4.054-22.281,17.444-22.281,31.146c0,17.079,10.344,71.289,12.603,82.922l-21.106,1.67L230.365,159.494z M328.08,141.639
		c-0.464,7.356-6.802,12.942-14.154,12.479c-7.354-0.46-12.939-6.794-12.476-14.154c0.464-7.354,6.798-12.939,14.155-12.479
		C322.958,127.944,328.544,134.282,328.08,141.639z M386.994,138.659c-0.464,7.356-6.801,12.939-14.154,12.479
		c-7.355-0.46-12.938-6.798-12.481-14.151c0.467-7.35,6.805-12.939,14.157-12.479C381.872,124.968,387.455,131.303,386.994,138.659z
		 M402.562,21.518c1.367,1.801,2.567,3.753,3.584,5.843c3.848,7.918,4.044,16.549,0.479,20.989
		c-6.31,7.862-15.611,9.275-20.337,5.659c-4.396-3.36-3.611-10.271,2.044-18.036C392.935,29.654,397.731,24.806,402.562,21.518z
		 M341.319,19.551c4.659,4.845,7.229,10.565,8.975,14.451l0.39,0.865c3.548,7.819-0.21,14.833-5.507,18.315
		c-4.607,3.03-11.268,3.878-15.756-1.062c-2.933-3.229-2.825-9.415,0.286-16.546C332.152,29.972,336.176,24.325,341.319,19.551z
		 M281.446,27.515c3.514,2.384,7.149,5.892,10.74,10.943c4.447,6.259,4.1,13.146-0.928,18.425
		c-4.395,4.614-12.355,7.414-18.451,3.513c-2.884-1.844-3.841-6.234-2.625-12.042C271.455,42.276,275.34,34.464,281.446,27.515z
		 M240.085,52.367c0-12.453,8.681-24.614,20.193-28.289c4.195-1.339,10.941-2.205,18.48,1.812
		c-6.215,7.229-10.148,15.332-11.512,21.849c-1.486,7.097-0.048,12.631,3.945,15.185c6.537,4.182,16.1,2.476,22.24-3.972
		c4.706-4.941,7.493-13.376,1.201-22.232c-3.41-4.797-7.179-8.611-11.172-11.381c6.744-6.914,15.784-12.631,26.7-14.351
		c13.907-2.192,22.936,1.33,28.99,6.514c-5.4,5.041-9.62,10.979-12.192,16.872c-3.652,8.368-3.563,15.572,0.242,19.763
		c5.68,6.252,13.948,5.284,19.625,1.552c6.363-4.185,10.87-12.629,6.591-22.062l-0.385-0.854c-1.727-3.842-4.457-9.927-9.476-15.184
		c7.432-6.149,16.827-10.438,27.037-10.544c12.226-0.138,22.902,4.291,30.037,12.146c-4.622,3.184-9.592,7.969-14.725,15.016
		c-8.031,11.028-6.011,18.691-1.441,22.185c5.854,4.474,17.093,3.064,24.5-6.164c4.333-5.396,4.285-15.113-0.119-24.178
		c-1.062-2.187-2.31-4.232-3.724-6.127c6.01-3.399,12.032-4.369,17.755-2.744c9.738,2.766,17.452,13.252,18.343,24.936
		c1.831,24.07-0.831,67.091-1.554,77.863l-31.319,2.479l-2.211-52.295l-125.276,5.729l3.64,56.644l-31.801,2.517
		C250.631,124.377,240.085,69.113,240.085,52.367z"/>
	<path fill="#AF4500" d="M524.303,434.957c1.89,0.354,3.834,0.548,5.826,0.548c17.346,0,31.407-14.062,31.407-31.407
		c0-14.138-9.343-26.091-22.19-30.029l-52.123-102.891c0.206-1.592,0.324-3.211,0.324-4.858c0-20.689-16.771-37.461-37.461-37.461
		c-14.015,0-26.223,7.701-32.646,19.098H279.077c-6.424-11.396-18.633-19.098-32.647-19.098c-10.805,0-20.535,4.581-27.373,11.899
		l-110.653-2.126c-2.174-5.43-5.812-10.113-10.437-13.553l17.04-132.558c3.826-1.119,7.492-2.846,10.858-5.191
		c8.162-5.686,13.622-14.21,15.375-24.004c1.61-9.016-0.141-18.266-4.932-26.046l-5.109,3.146
		c4.017,6.524,5.485,14.282,4.135,21.845c-1.47,8.215-6.051,15.367-12.898,20.137c-4.805,3.347-10.322,5.234-16.023,5.557
		l-20.135-5.86c-2.812-2.034-5.294-4.545-7.337-7.477c-4.774-6.849-6.594-15.144-5.125-23.356c1.429-7.98,5.833-15.003,12.4-19.776
		l-3.527-4.854C74.86,32.329,69.612,40.7,67.908,50.214c-1.751,9.792,0.419,19.68,6.11,27.844c1.858,2.666,4.024,5.037,6.433,7.091
		L62.65,223.627c-8.896,5.546-14.82,15.413-14.82,26.668c0,17.348,14.063,31.411,31.411,31.411c7.723,0,14.79-2.792,20.26-7.415
		l116.098,13.298c6.437,9.312,16.976,15.568,29.009,16.145l-4.172,180.834c-16.285,5.074-28.107,20.267-28.107,38.226
		c0,18.291,12.286,33.712,29.057,38.486l9.168,180.183c0,0-15.221-10.109-65.946-10.105c-50.729,0-40.697,57.263,0,57.263
		c40.697,0,101.842,0,101.842,0l-9.85-233.979c5.071-3.862,9.192-8.904,11.952-14.721h105.59c3.49,7.355,9.16,13.472,16.174,17.529
		l-6.561,231.169c0,0,61.146-0.004,101.842-0.004c40.697,0,50.726-57.259,0-57.259c-50.725,0-65.944,10.105-65.944,10.105
		l6.166-181.756c14.418-6.056,24.547-20.306,24.547-36.913c0-17.811-11.634-32.893-27.712-38.091l-0.178-15.312L524.303,434.957z
		 M440.551,302.551c3.045,0.799,6.239,1.229,9.535,1.229c0.399,0,0.794-0.018,1.189-0.03l53.268,82.145
		c-3.66,5.136-5.821,11.416-5.821,18.204c0,1.253,0.082,2.486,0.226,3.701l-56.889,25.388L440.551,302.551z M345.068,454.03
		c-8.374,0-15.163-6.789-15.163-15.163c0-8.375,6.789-15.164,15.163-15.164c8.375,0,15.164,6.789,15.164,15.164
		C360.232,447.241,353.443,454.03,345.068,454.03z M345.068,398.898c-8.374,0-15.163-6.791-15.163-15.165
		s6.789-15.164,15.163-15.164c8.375,0,15.164,6.789,15.164,15.164S353.443,398.898,345.068,398.898z M345.068,343.766
		c-8.374,0-15.163-6.789-15.163-15.164s6.789-15.164,15.163-15.164c8.375,0,15.164,6.789,15.164,15.164
		S353.443,343.766,345.068,343.766z"/>
	<circle fill="#AF4500" cx="314.741" cy="141.046" r="9.371"/>
	<circle fill="#AF4500" cx="373.68" cy="137.823" r="9.087"/>
</g>
</svg>
